
<svg width="1440" height="900" viewBox="0 0 1440 900" fill="none" xmlns="http://www.w3.org/2000/svg">
  <g opacity="0.2">
    <circle cx="100" cy="100" r="4" fill="#00C2CB"/>
    <circle cx="300" cy="200" r="4" fill="#00C2CB"/>
    <circle cx="500" cy="150" r="4" fill="#00C2CB"/>
    <circle cx="700" cy="300" r="4" fill="#00C2CB"/>
    <circle cx="900" cy="200" r="4" fill="#00C2CB"/>
    <circle cx="1100" cy="400" r="4" fill="#00C2CB"/>
    <circle cx="1300" cy="300" r="4" fill="#00C2CB"/>
    <circle cx="200" cy="500" r="4" fill="#00C2CB"/>
    <circle cx="400" cy="600" r="4" fill="#00C2CB"/>
    <circle cx="600" cy="550" r="4" fill="#00C2CB"/>
    <circle cx="800" cy="700" r="4" fill="#00C2CB"/>
    <circle cx="1000" cy="600" r="4" fill="#00C2CB"/>
    <circle cx="1200" cy="800" r="4" fill="#00C2CB"/>
    <circle cx="1400" cy="700" r="4" fill="#00C2CB"/>
    
    <line x1="100" y1="100" x2="300" y2="200" stroke="#00C2CB" stroke-width="1" stroke-opacity="0.3"/>
    <line x1="300" y1="200" x2="500" y2="150" stroke="#00C2CB" stroke-width="1" stroke-opacity="0.3"/>
    <line x1="500" y1="150" x2="700" y2="300" stroke="#00C2CB" stroke-width="1" stroke-opacity="0.3"/>
    <line x1="700" y1="300" x2="900" y2="200" stroke="#00C2CB" stroke-width="1" stroke-opacity="0.3"/>
    <line x1="900" y1="200" x2="1100" y2="400" stroke="#00C2CB" stroke-width="1" stroke-opacity="0.3"/>
    <line x1="1100" y1="400" x2="1300" y2="300" stroke="#00C2CB" stroke-width="1" stroke-opacity="0.3"/>
    <line x1="200" y1="500" x2="400" y2="600" stroke="#00C2CB" stroke-width="1" stroke-opacity="0.3"/>
    <line x1="400" y1="600" x2="600" y2="550" stroke="#00C2CB" stroke-width="1" stroke-opacity="0.3"/>
    <line x1="600" y1="550" x2="800" y2="700" stroke="#00C2CB" stroke-width="1" stroke-opacity="0.3"/>
    <line x1="800" y1="700" x2="1000" y2="600" stroke="#00C2CB" stroke-width="1" stroke-opacity="0.3"/>
    <line x1="1000" y1="600" x2="1200" y2="800" stroke="#00C2CB" stroke-width="1" stroke-opacity="0.3"/>
    <line x1="1200" y1="800" x2="1400" y2="700" stroke="#00C2CB" stroke-width="1" stroke-opacity="0.3"/>
    
    <line x1="300" y1="200" x2="200" y2="500" stroke="#00C2CB" stroke-width="1" stroke-opacity="0.3"/>
    <line x1="500" y1="150" x2="400" y2="600" stroke="#00C2CB" stroke-width="1" stroke-opacity="0.3"/>
    <line x1="700" y1="300" x2="600" y2="550" stroke="#00C2CB" stroke-width="1" stroke-opacity="0.3"/>
    <line x1="900" y1="200" x2="800" y2="700" stroke="#00C2CB" stroke-width="1" stroke-opacity="0.3"/>
    <line x1="1100" y1="400" x2="1000" y2="600" stroke="#00C2CB" stroke-width="1" stroke-opacity="0.3"/>
    <line x1="1300" y1="300" x2="1200" y2="800" stroke="#00C2CB" stroke-width="1" stroke-opacity="0.3"/>
  </g>
</svg>
